<?xml version="1.0" standalone="no"?>
<!DOCTYPE svg PUBLIC "-//W3C//DTD SVG 20010904//EN"
 "http://www.w3.org/TR/2001/REC-SVG-20010904/DTD/svg10.dtd">
<svg version="1.0" xmlns="http://www.w3.org/2000/svg"
 width="688.000000pt" height="235.000000pt" viewBox="0 0 688.000000 235.000000"
 preserveAspectRatio="xMidYMid meet">

<g transform="translate(0.000000,235.000000) scale(0.100000,-0.100000)"
fill="#000000" stroke="none">
<path d="M120 1175 l0 -965 965 0 965 0 0 965 0 965 -965 0 -965 0 0 -965z
m770 315 l0 -150 200 0 199 0 3 153 c3 147 4 152 24 155 23 3 226 -112 256
-145 43 -47 48 -82 48 -328 0 -246 -5 -281 -48 -328 -30 -33 -233 -148 -256
-145 -20 3 -21 8 -24 156 l-3 152 -199 0 -199 0 -3 -152 c-4 -188 -1 -186
-149 -97 -130 77 -144 91 -163 147 -23 66 -23 468 0 534 19 57 28 66 166 149
151 90 148 93 148 -101z"/>
<path d="M3037 2063 c-2 -5 -3 -48 -3 -98 1 -50 -3 -93 -9 -97 -17 -13 -53 -9
-58 5 -4 12 1 70 15 151 3 23 -39 43 -66 33 -20 -8 -25 -144 -13 -356 5 -85
12 -101 50 -101 15 0 17 11 17 95 0 69 3 95 13 95 6 0 22 3 35 6 20 6 22 3 22
-40 0 -26 -5 -57 -11 -68 -10 -18 -8 -25 11 -40 13 -11 33 -18 44 -16 20 3 21
8 18 84 -3 64 -1 83 12 93 15 12 15 16 1 37 -19 29 -20 145 -2 175 10 17 9 22
-7 35 -21 15 -62 19 -69 7z"/>
<path d="M3766 2052 c-10 -16 -9 -423 2 -434 5 -5 20 -8 33 -6 l24 3 0 220 0
220 -27 3 c-14 2 -29 -1 -32 -6z"/>
<path d="M4717 2053 c-12 -11 -8 -421 4 -428 5 -4 21 -4 34 -1 20 5 24 13 27
48 l3 42 57 -47 c60 -49 76 -55 96 -35 22 22 13 53 -20 71 -18 10 -46 29 -63
42 l-30 25 58 58 c58 59 69 85 41 96 -31 12 -43 5 -93 -46 l-51 -53 1 106 c1
59 -2 112 -5 118 -8 12 -49 15 -59 4z"/>
<path d="M4017 2043 c-3 -5 0 -80 5 -168 5 -88 6 -173 3 -189 -4 -22 1 -36 17
-53 31 -33 62 -29 89 10 12 17 42 53 66 80 38 41 44 53 41 84 -3 37 -5 38 -66
70 -2 1 8 21 22 46 56 94 18 146 -84 117 -22 -6 -38 -6 -44 0 -12 12 -43 13
-49 3z m123 -74 c0 -15 -39 -69 -51 -69 -17 0 -10 59 9 69 23 14 42 14 42 0z
m27 -165 c6 -15 -51 -84 -70 -84 -4 0 -7 17 -5 37 2 28 9 41 28 50 33 17 39
16 47 -3z"/>
<path d="M4974 2027 c-3 -9 -4 -28 -2 -44 3 -24 7 -28 33 -28 28 0 30 2 30 40
0 36 -3 40 -28 43 -17 2 -29 -2 -33 -11z"/>
<path d="M3421 1996 c-8 -9 -10 -28 -5 -50 6 -35 5 -37 -35 -54 -22 -9 -41
-23 -41 -30 0 -15 39 -32 58 -25 9 4 12 -18 12 -92 0 -107 9 -135 44 -135 33
0 50 23 36 49 -6 13 -10 61 -8 119 l3 97 33 3 c29 3 33 6 30 30 -3 24 -7 27
-36 25 -31 -1 -33 1 -27 24 11 44 -37 72 -64 39z"/>
<path d="M3183 1908 c-59 -66 -57 -220 4 -268 35 -28 75 -26 107 6 64 64 61
221 -5 268 -34 23 -82 20 -106 -6z m91 -71 c7 -26 6 -57 -2 -95 -14 -69 -26
-82 -50 -59 -21 22 -23 139 -3 175 18 34 44 24 55 -21z"/>
<path d="M3617 1919 c-57 -33 -79 -194 -34 -260 16 -25 31 -35 54 -37 61 -6
130 51 102 84 -15 18 -38 18 -45 -1 -10 -25 -43 -38 -60 -24 -21 17 -18 25 20
49 70 43 99 137 56 180 -22 22 -64 26 -93 9z m63 -70 c0 -27 -37 -79 -56 -79
-18 0 -18 10 2 60 18 44 54 57 54 19z"/>
<path d="M4303 1908 c-59 -66 -57 -220 4 -268 35 -28 75 -26 107 6 64 64 61
221 -5 268 -34 23 -82 20 -106 -6z m91 -71 c7 -26 6 -57 -2 -95 -14 -69 -26
-82 -50 -59 -21 22 -23 139 -3 175 18 34 44 24 55 -21z"/>
<path d="M4523 1908 c-59 -66 -57 -220 4 -268 35 -28 75 -26 107 6 64 64 61
221 -5 268 -34 23 -82 20 -106 -6z m91 -71 c7 -26 6 -57 -2 -95 -14 -69 -26
-82 -50 -59 -21 22 -23 139 -3 175 18 34 44 24 55 -21z"/>
<path d="M5077 1923 c-4 -3 -7 -73 -7 -155 0 -148 0 -148 25 -160 32 -14 55 4
55 43 0 34 48 159 61 159 5 0 9 -35 9 -79 0 -88 11 -108 56 -97 23 6 26 11 20
38 -3 17 -6 70 -6 118 0 72 -3 92 -19 111 -19 23 -21 23 -48 9 -15 -9 -37 -29
-48 -47 -48 -73 -46 -72 -40 -11 4 50 3 59 -14 68 -23 12 -35 13 -44 3z"/>
<path d="M5464 1915 c-5 -11 -10 -12 -23 -3 -28 17 -69 1 -87 -33 -35 -69 -26
-197 17 -240 26 -26 45 -24 74 7 l25 27 0 -47 c0 -33 -4 -46 -14 -46 -8 0 -18
5 -21 10 -7 12 -62 13 -69 2 -19 -32 94 -78 132 -54 26 17 33 76 26 227 -4 92
-11 153 -18 157 -18 12 -36 9 -42 -7z m-8 -101 c7 -40 -20 -124 -41 -124 -18
0 -25 23 -25 84 0 94 50 124 66 40z"/>
<path d="M4977 1913 c-4 -3 -7 -68 -7 -143 0 -145 6 -166 47 -158 16 3 18 14
14 116 -2 76 1 122 9 143 11 26 11 32 -1 40 -17 10 -53 12 -62 2z"/>
<path d="M4158 1368 c-21 -23 -50 -66 -65 -96 l-27 -55 27 -21 26 -21 -26 -53
c-23 -46 -24 -55 -13 -82 38 -91 115 -75 192 39 37 54 45 61 76 61 26 0 31 37
6 47 -19 7 -136 -24 -161 -43 -17 -13 -17 -15 5 -34 l24 -20 -31 -31 c-17 -16
-35 -28 -41 -24 -29 18 11 109 65 151 23 17 35 35 35 50 0 29 -26 32 -71 8
-17 -8 -33 -13 -36 -10 -8 8 46 96 60 96 7 0 18 -9 25 -20 7 -11 21 -20 32
-20 26 0 27 45 3 80 -36 53 -55 52 -105 -2z"/>
<path d="M2957 783 c-2 -5 -3 -48 -3 -98 1 -50 -3 -93 -9 -97 -17 -13 -53 -9
-58 5 -4 12 1 70 15 151 3 23 -39 43 -66 33 -20 -8 -25 -144 -13 -356 5 -85
12 -101 50 -101 15 0 17 11 17 95 0 69 3 95 13 95 6 0 22 3 35 6 20 6 22 3 22
-40 0 -26 -5 -57 -11 -68 -10 -18 -8 -25 11 -40 13 -11 33 -18 44 -16 20 3 21
8 18 84 -3 64 -1 83 12 93 15 12 15 16 1 37 -19 29 -20 145 -2 175 10 17 9 22
-7 35 -21 15 -62 19 -69 7z"/>
<path d="M3686 772 c-10 -16 -9 -423 2 -434 5 -5 20 -8 33 -6 l24 3 0 220 0
220 -27 3 c-14 2 -29 -1 -32 -6z"/>
<path d="M4030 768 c-14 -5 -39 -10 -57 -9 -17 0 -35 -5 -40 -12 -5 -7 -5 -93
2 -206 10 -186 11 -194 32 -204 35 -15 68 14 107 95 39 81 76 206 76 255 0 39
-43 93 -73 92 -12 0 -33 -5 -47 -11z m50 -73 c0 -27 -54 -201 -70 -225 -7 -10
-10 20 -10 97 0 109 1 112 26 132 36 28 54 27 54 -4z"/>
<path d="M4184 747 c-3 -9 -4 -28 -2 -44 3 -24 7 -28 33 -28 28 0 30 2 30 40
0 36 -3 40 -28 43 -17 2 -29 -2 -33 -11z"/>
<path d="M3341 716 c-8 -9 -10 -28 -5 -50 6 -35 5 -37 -35 -54 -22 -9 -41 -23
-41 -30 0 -15 39 -32 58 -25 9 4 12 -18 12 -92 0 -107 9 -135 44 -135 33 0 50
23 36 49 -6 13 -10 61 -8 119 l3 97 33 3 c29 3 33 6 30 30 -3 24 -7 27 -36 25
-31 -1 -33 1 -27 24 11 44 -37 72 -64 39z"/>
<path d="M5441 716 c-8 -9 -10 -28 -5 -50 6 -35 5 -37 -35 -54 -22 -9 -41 -23
-41 -30 0 -15 39 -32 58 -25 9 4 12 -18 12 -92 0 -107 9 -135 44 -135 33 0 50
23 36 49 -6 13 -10 61 -8 119 l3 97 33 3 c29 3 33 6 30 30 -3 24 -7 27 -36 25
-31 -1 -33 1 -27 24 11 44 -37 72 -64 39z"/>
<path d="M3103 628 c-59 -66 -57 -220 4 -268 35 -28 75 -26 107 6 64 64 61
221 -5 268 -34 23 -82 20 -106 -6z m91 -71 c7 -26 6 -57 -2 -95 -14 -69 -26
-82 -50 -59 -21 22 -23 139 -3 175 18 34 44 24 55 -21z"/>
<path d="M3537 639 c-57 -33 -79 -194 -34 -260 16 -25 31 -35 54 -37 61 -6
130 51 102 84 -15 18 -38 18 -45 -1 -10 -25 -43 -38 -60 -24 -21 17 -18 25 20
49 70 43 99 137 56 180 -22 22 -64 26 -93 9z m63 -70 c0 -27 -37 -79 -56 -79
-18 0 -18 10 2 60 18 44 54 57 54 19z"/>
<path d="M4337 639 c-29 -17 -49 -68 -42 -105 4 -25 18 -43 50 -67 28 -20 44
-40 45 -54 0 -39 -24 -38 -46 2 -14 25 -57 27 -62 2 -5 -25 60 -87 91 -87 14
0 38 11 54 24 22 19 28 32 28 66 0 43 -2 45 -70 93 -26 18 -35 69 -15 82 6 3
10 -5 10 -19 0 -39 10 -56 35 -56 28 0 37 22 29 67 -10 53 -62 78 -107 52z"/>
<path d="M4542 634 c-38 -26 -56 -73 -56 -149 -2 -140 82 -194 148 -95 30 45
33 65 10 74 -27 10 -33 7 -48 -29 -24 -57 -46 -46 -46 23 0 64 16 132 30 132
6 0 10 -17 10 -39 0 -39 16 -54 48 -44 17 6 15 68 -3 102 -22 43 -55 52 -93
25z"/>
<path d="M4723 628 c-59 -66 -57 -220 4 -268 35 -28 75 -26 107 6 64 64 61
221 -5 268 -34 23 -82 20 -106 -6z m91 -71 c7 -26 6 -57 -2 -95 -14 -69 -26
-82 -50 -59 -21 22 -23 139 -3 175 18 34 44 24 55 -21z"/>
<path d="M4922 638 c-5 -7 -10 -57 -11 -111 -3 -150 34 -213 112 -193 40 10
59 59 68 175 7 93 6 108 -9 119 -38 29 -47 12 -53 -101 -5 -80 -11 -113 -22
-125 -15 -14 -17 -13 -27 12 -12 34 -13 140 -1 183 6 21 5 35 -2 42 -15 15
-42 14 -55 -1z"/>
<path d="M5137 643 c-4 -3 -7 -73 -7 -155 0 -148 0 -148 25 -160 32 -14 55 4
55 43 0 34 48 159 61 159 5 0 9 -35 9 -79 0 -88 11 -108 56 -97 23 6 26 11 20
38 -3 17 -6 70 -6 118 0 72 -3 92 -19 111 -19 23 -21 23 -48 9 -15 -9 -37 -29
-48 -47 -48 -73 -46 -72 -40 -11 4 50 3 59 -14 68 -23 12 -35 13 -44 3z"/>
<path d="M5627 639 c-29 -17 -49 -68 -42 -105 4 -25 18 -43 50 -67 28 -20 44
-40 45 -54 0 -39 -24 -38 -46 2 -14 25 -57 27 -62 2 -5 -25 60 -87 91 -87 14
0 38 11 54 24 22 19 28 32 28 66 0 43 -2 45 -70 93 -26 18 -35 69 -15 82 6 3
10 -5 10 -19 0 -39 10 -56 35 -56 28 0 37 22 29 67 -10 53 -62 78 -107 52z"/>
<path d="M4187 633 c-4 -3 -7 -68 -7 -143 0 -145 6 -166 47 -158 16 3 18 14
14 116 -2 76 1 122 9 143 11 26 11 32 -1 40 -17 10 -53 12 -62 2z"/>
</g>
</svg>
